<svg xmlns="http://www.w3.org/2000/svg" width="16.8" height="21" viewBox="0 0 16.8 21"><defs><style>.a{fill:#8b7736;}</style></defs><g transform="translate(-51.2)"><g transform="translate(51.2)"><path class="a" d="M67.768,5.768,62.2.229A.787.787,0,0,0,61.648,0h-9.66A.787.787,0,0,0,51.2.788V20.212a.787.787,0,0,0,.788.788H67.213A.787.787,0,0,0,68,20.212V6.326A.787.787,0,0,0,67.768,5.768Zm-5.28-3.034,2.791,2.778H62.487Zm3.938,16.691H52.775V1.575h8.137V6.3a.787.787,0,0,0,.788.787h4.725Z" transform="translate(-51.2)"/></g></g></svg>