<svg xmlns="http://www.w3.org/2000/svg" width="24.585" height="21.1" viewBox="0 0 24.585 21.1"><defs><style>.a{fill:#c0b790;stroke:#c0b790;stroke-width:0.1px;}</style></defs><g transform="translate(0.05 0.05)"><path class="a" d="M183.2,101.209a2.446,2.446,0,1,0-2.446-2.446A2.449,2.449,0,0,0,183.2,101.209Zm0-3.458a1.011,1.011,0,1,1-1.011,1.012A1.013,1.013,0,0,1,183.2,97.751Zm0,0" transform="translate(-172.106 -91.734)"/><path class="a" d="M23.591.5H.894A.9.9,0,0,0,0,1.394V20.606a.9.9,0,0,0,.894.894h22.7a.9.9,0,0,0,.894-.894V1.394A.9.9,0,0,0,23.591.5Zm-.541,1.435V13.288L18.539,8.776a.756.756,0,0,0-1.067,0L11.09,15.158,7.014,11.082a.755.755,0,0,0-1.067,0L1.435,15.593V1.935ZM1.435,20.065V17.622L6.48,12.577l4.076,4.076a.754.754,0,0,0,1.067,0l6.382-6.382,5.046,5.046v4.748Zm0,0" transform="translate(0 -0.5)"/></g></svg>